<?xml version="1.0" encoding="UTF-8"?>
<svg version="1.1" xmlns="http://www.w3.org/2000/svg" width="52" height="52">
<path d="M0 0 C0.73734375 0.00773438 1.4746875 0.01546875 2.234375 0.0234375 C3.34039063 0.01183594 3.34039063 0.01183594 4.46875 0 C9.9810554 0.0201179 9.9810554 0.0201179 12.234375 2.2734375 C12.46142578 4.33642578 12.46142578 4.33642578 12.4296875 6.84375 C12.42324219 7.73964844 12.41679688 8.63554687 12.41015625 9.55859375 C12.39339844 10.49574219 12.37664063 11.43289063 12.359375 12.3984375 C12.35035156 13.34332031 12.34132813 14.28820313 12.33203125 15.26171875 C12.30842168 17.59906577 12.27254994 19.93628299 12.234375 22.2734375 C15.534375 22.2734375 18.834375 22.2734375 22.234375 22.2734375 C19.6939835 27.14950031 16.1533054 30.68690612 12.296875 34.5234375 C11.36584961 35.47863281 11.36584961 35.47863281 10.41601562 36.453125 C9.81080078 37.05898438 9.20558594 37.66484375 8.58203125 38.2890625 C8.03554932 38.83852539 7.48906738 39.38798828 6.92602539 39.95410156 C5.00934928 41.44893742 3.63581913 41.96312642 1.234375 42.2734375 C-0.5546875 41.19140625 -0.5546875 41.19140625 -2.390625 39.4609375 C-3.41736328 38.49994141 -3.41736328 38.49994141 -4.46484375 37.51953125 C-5.60373047 36.40771484 -5.60373047 36.40771484 -6.765625 35.2734375 C-7.65894531 34.41878906 -8.55226563 33.56414063 -9.47265625 32.68359375 C-16.61506886 25.72510593 -16.61506886 25.72510593 -17.765625 22.2734375 C-14.465625 22.2734375 -11.165625 22.2734375 -7.765625 22.2734375 C-7.78882813 20.85289063 -7.81203125 19.43234375 -7.8359375 17.96875 C-7.85469271 16.11198441 -7.87289317 14.25521315 -7.890625 12.3984375 C-7.90738281 11.46128906 -7.92414062 10.52414062 -7.94140625 9.55859375 C-7.94785156 8.66269531 -7.95429688 7.76679687 -7.9609375 6.84375 C-7.97141113 6.01633301 -7.98188477 5.18891602 -7.99267578 4.33642578 C-7.46286626 -0.47743494 -4.0355634 0.01472833 0 0 Z " fill="#FFFFFF" transform="translate(23.765625,-0.2734375)"/>
<path d="M0 0 C1.32 0 2.64 0 4 0 C4.22786458 2.05078125 4.45572917 4.1015625 4.68359375 6.15234375 C4.81886614 8.01140229 4.81886614 8.01140229 6 9 C8.9453557 9.10110353 11.8667756 9.13969279 14.8125 9.1328125 C16.13858276 9.13424759 16.13858276 9.13424759 17.49145508 9.13571167 C19.36442129 9.13639351 21.23738986 9.13453893 23.11035156 9.13037109 C25.98768388 9.12502289 28.86486008 9.13031593 31.7421875 9.13671875 C33.55729201 9.13605797 35.37239643 9.13477681 37.1875 9.1328125 C38.48747925 9.13584885 38.48747925 9.13584885 39.8137207 9.13894653 C43.72003219 9.51260414 43.72003219 9.51260414 47 8 C47.23075082 6.65252916 47.41153063 5.29622435 47.5625 3.9375 C47.706875 2.638125 47.85125 1.33875 48 0 C49.32 0 50.64 0 52 0 C52.05389087 1.95803507 52.09274217 3.91648909 52.125 5.875 C52.14820313 6.96554688 52.17140625 8.05609375 52.1953125 9.1796875 C52 12 52 12 50 14 C47.95068359 14.25396729 47.95068359 14.25396729 45.3984375 14.25878906 C43.96685303 14.26824554 43.96685303 14.26824554 42.50634766 14.27789307 C41.47300293 14.2738446 40.4396582 14.26979614 39.375 14.265625 C38.31716309 14.26753845 37.25932617 14.2694519 36.16943359 14.27142334 C33.93001061 14.27278602 31.69057974 14.26908382 29.45117188 14.26074219 C26.01414323 14.25004402 22.5776373 14.26063488 19.140625 14.2734375 C16.96874884 14.27211592 14.79687301 14.26955356 12.625 14.265625 C11.59165527 14.26967346 10.55831055 14.27372192 9.49365234 14.27789307 C8.5392627 14.27158875 7.58487305 14.26528442 6.6015625 14.25878906 C5.75932129 14.25719788 4.91708008 14.25560669 4.04931641 14.25396729 C2 14 2 14 0 12 C-0.1953125 9.1796875 -0.1953125 9.1796875 -0.125 5.875 C-0.10695312 4.77929688 -0.08890625 3.68359375 -0.0703125 2.5546875 C-0.04710937 1.71164063 -0.02390625 0.86859375 0 0 Z " fill="#FFFFFF" transform="translate(0,38)"/>
</svg>
