<?xml version="1.0" encoding="UTF-8"?>
<svg version="1.1" xmlns="http://www.w3.org/2000/svg" width="512" height="512">
<path d="M0 0 C1.27617187 0.55107422 1.27617187 0.55107422 2.578125 1.11328125 C7.96962497 3.72430766 12.39505115 7.02384654 16.7384491 11.1157074 C17.29363258 11.63389304 17.84881606 12.15207868 18.42082328 12.68596691 C26.40287248 20.19123391 34.12343935 27.96711358 41.87231445 35.71118164 C43.63444042 37.46866882 45.39675977 39.22596212 47.15925598 40.983078 C51.90931141 45.72011952 56.65614017 50.46037816 61.4019053 55.20171666 C64.37229651 58.16932621 67.34341621 61.13620571 70.31465721 64.1029644 C78.56503087 72.34117167 86.81447559 80.58030663 95.06046772 88.82289982 C95.84826916 89.61037191 95.84826916 89.61037191 96.65198578 90.41375252 C97.17830744 90.93985591 97.7046291 91.46595929 98.2468999 92.0080052 C99.31311726 93.07377912 100.37933617 94.13955147 101.44555664 95.20532227 C101.9744173 95.73396149 102.50327795 96.26260072 103.04816469 96.80725931 C111.63048598 105.38562673 120.21955108 113.95720804 128.81151269 122.52591879 C137.66335655 131.35400382 146.50951978 140.18774825 155.35007447 149.02713865 C160.30179545 153.97794631 165.25586563 158.92634934 170.21624184 163.8684864 C174.87796853 168.51312951 179.53187851 173.165503 184.18069267 177.82307625 C185.8824158 179.52556767 187.58668242 181.22552134 189.29373932 182.92266464 C204.94493733 198.48831699 217.32486811 211.87254805 218 235 C217.03112039 258.87418737 200.96587875 273.4815902 185.08447266 289.30371094 C183.25655593 291.13569774 181.42927694 292.96832104 179.60258484 294.80152893 C175.17363035 299.24375573 170.73668631 303.67791643 166.29673077 308.10914508 C162.68593224 311.71314255 159.078104 315.320089 155.472332 318.9291153 C154.9573106 319.4445964 154.44228919 319.9600775 153.91166108 320.49117924 C152.865125 321.53867459 151.81859561 322.58617662 150.77207284 323.63368526 C140.98112701 333.43316571 131.18104253 343.22346524 121.37775747 353.01059952 C112.98131931 361.39363227 104.59278295 369.78450456 96.20996094 378.18115234 C86.45404471 387.95315164 76.6932438 397.72022931 66.92468488 407.47959161 C65.88155019 408.52177074 64.83842171 409.5639561 63.79529953 410.60614777 C63.02561713 411.37513592 63.02561713 411.37513592 62.2403856 412.15965919 C58.6389603 415.75850307 55.04100955 419.3607979 51.44441605 422.96446991 C46.59730129 427.82091532 41.74222201 432.66927711 36.8817997 437.51240349 C35.10312243 439.28712619 33.32697049 441.06438414 31.55359077 442.84440041 C29.12527613 445.2809609 26.68782945 447.708018 24.24795532 450.13299561 C23.55493336 450.83270973 22.8619114 451.53242385 22.14788878 452.25334144 C15.71658719 458.6091392 8.52740435 464.24895463 0.1875 467.875 C-0.68519531 468.26429688 -1.55789062 468.65359375 -2.45703125 469.0546875 C-13.41263779 473.12727856 -28.64860251 472.55653337 -39.38671875 468.2734375 C-53.31730239 461.48514114 -62.94293975 452.35530545 -69.03125 437.875 C-73.64655875 424.17795469 -72.61926026 410.19282906 -67 397 C-61.71683192 386.6330676 -53.50809454 378.96722894 -45.34399414 370.88989258 C-43.85443586 369.40146436 -42.36576133 367.91215129 -40.87789917 366.42202759 C-36.8604866 362.40347316 -32.83091192 358.39732243 -28.79894948 354.39337373 C-24.57837141 350.19789749 -20.36921074 345.99099755 -16.15879822 341.7853241 C-8.19490155 333.83383143 -0.22086881 325.89258549 7.75690514 317.9550187 C16.84341962 308.91330213 25.91850138 299.86014738 34.99266613 290.80603945 C53.64913193 272.1913196 72.3198267 253.59092675 91 235 C89.3631761 230.8180026 86.29384784 228.03601327 83.15670776 224.94984436 C82.55219414 224.34714971 81.94768051 223.74445507 81.32484829 223.12349695 C79.29530812 221.10237906 77.25872551 219.08850777 75.22216797 217.07446289 C73.76642712 215.62747101 72.31116214 214.18000024 70.8563385 212.73208618 C67.71985155 209.61210206 64.58043737 206.49510352 61.43886948 203.38023567 C56.46464408 198.44737493 51.49965707 193.505287 46.53640747 188.56138611 C32.42027846 174.50282709 18.29437316 160.4541443 4.15332031 146.4206543 C-3.65467534 138.67189112 -11.45356199 130.91407691 -19.24272239 123.14637941 C-24.1662391 118.23744489 -29.10059339 113.33976357 -34.04338384 108.45024025 C-37.12963354 105.39189777 -40.20518183 102.3229629 -43.27791023 99.25104141 C-44.69564136 97.83784688 -46.11762348 96.42890091 -47.54433632 95.02477455 C-61.05987821 81.71444238 -70.97306927 69.01824331 -71.984375 49.34375 C-72.05170411 34.93531964 -66.75629112 21.62152794 -57 11 C-42.06977353 -2.04331001 -18.8630497 -8.72917726 0 0 Z " fill="#000000" transform="translate(183,22)"/>
</svg>
